<svg width="152" height="32" viewBox="0 0 152 32" fill="none" xmlns="http://www.w3.org/2000/svg">
<path d="M30.3503 16.6172C30.0624 16.4378 29.7891 16.2772 29.5305 16.1353C28.9163 15.7962 28.3075 15.6266 27.7043 15.6266C25.1076 15.6256 22.431 15.6247 19.6744 15.6238C17.6919 15.6238 16.0412 16.885 15.4147 18.8113C15.2648 19.2717 15.1889 20.1402 15.1871 21.4169C15.1816 24.5829 15.1807 27.8137 15.1843 31.1093C15.1843 31.145 15.1528 31.184 15.0897 31.2263C12.626 31.3545 10.7258 29.5621 10.719 27.0072C10.7135 24.8427 10.7126 22.6133 10.7162 20.3192C10.7172 20.2628 10.6897 20.2346 10.634 20.2346C8.69357 20.2196 6.72664 20.2219 4.7332 20.2417C3.87404 20.2511 3.20819 20.175 2.73566 20.0134C1.18917 19.4835 0.159548 18.0772 0.0293029 16.3918C-0.0127411 15.8516 -0.00954105 15.2992 0.0389009 14.7346C0.185598 13.0421 1.29748 11.6963 2.85219 11.1834C3.2772 11.0425 4.07421 10.9772 5.24321 10.9875C7.13428 11.0035 8.92618 11.0082 10.6189 11.0016C10.6838 11.0016 10.7162 10.9683 10.7162 10.9016C10.7126 8.6525 10.713 6.40155 10.7176 4.14872C10.7231 1.81651 12.4574 0.0747532 14.7004 0.00993045C15.4613 -0.0112074 16.2702 -0.0224808 16.9995 0.23681C18.265 0.687751 19.237 1.76437 19.5578 3.07774C19.6565 3.48546 19.7018 4.10457 19.6936 4.93505C19.6744 6.97462 19.6712 8.96956 19.684 10.9199C19.684 10.9734 19.71 11.0002 19.7621 11.0002C21.9018 10.9936 24.0858 10.9936 26.3141 11.0002C28.4186 11.0073 30.2338 12.5884 30.3627 14.7966C30.3919 15.3104 30.3878 15.9173 30.3503 16.6172Z" fill="#3EC8F7"/>
<path d="M30.3504 16.6173C30.5113 16.7911 30.6859 16.9874 30.8742 17.2063C31.3321 17.738 31.646 18.3097 31.816 18.9213C31.944 19.3797 32.0052 20.0097 31.9998 20.811C31.9815 23.2611 31.9764 25.5337 31.9847 27.6287C31.9856 27.9716 31.9239 28.3436 31.7996 28.7447C31.3321 30.2484 30.2243 31.3503 28.7669 31.8041C28.341 31.9366 27.7483 32.0019 26.9888 32C23.0311 31.9859 19.1082 31.984 15.2201 31.9943C15.2092 31.9943 15.1987 31.9899 15.191 31.982C15.1833 31.974 15.179 31.9633 15.179 31.9521L15.1886 31.263C15.1886 31.231 15.173 31.2127 15.1419 31.208C15.1173 31.2052 15.0999 31.2113 15.0898 31.2263C15.1529 31.1841 15.1844 31.1451 15.1844 31.1094C15.1808 27.8137 15.1817 24.5829 15.1872 21.417C15.189 20.1402 15.2649 19.2717 15.4148 18.8114C16.0413 16.885 17.692 15.6238 19.6745 15.6238C22.4311 15.6247 25.1077 15.6257 27.7044 15.6266C28.3077 15.6266 28.9164 15.7962 29.5306 16.1353C29.7892 16.2772 30.0625 16.4378 30.3504 16.6173ZM23.3679 25.4839C23.3305 25.6116 23.298 25.6102 23.2706 25.4797L21.709 18.0786C21.6871 17.9771 21.6606 17.9757 21.6295 18.0744L19.9267 23.3363C19.9179 23.3633 19.9011 23.3869 19.8787 23.4035C19.8563 23.4202 19.8295 23.4292 19.802 23.4293L17.0339 23.4222C17.0234 23.4221 17.0129 23.424 17.0031 23.428C16.9933 23.4321 16.9843 23.4381 16.9768 23.4457C16.9693 23.4533 16.9633 23.4624 16.9592 23.4724C16.9551 23.4824 16.953 23.4931 16.953 23.504V24.3283C16.953 24.3866 16.9818 24.4157 17.0394 24.4157L20.5409 24.4171C20.5949 24.4171 20.6296 24.3908 20.6451 24.3382L21.3485 22.0807C21.4261 21.8299 21.492 21.8331 21.5459 22.0906L23.0937 29.4254C23.1303 29.5982 23.1737 29.5997 23.224 29.4296L25.0776 23.1615C25.0796 23.1549 25.083 23.1487 25.0876 23.1436C25.0922 23.1384 25.0979 23.1344 25.1042 23.1319C25.1105 23.1293 25.1173 23.1282 25.1241 23.1287C25.1309 23.1292 25.1375 23.1313 25.1434 23.1348C25.1772 23.1545 25.2019 23.1822 25.2174 23.2179C25.3637 23.5561 25.5163 23.9295 25.6753 24.3382C25.6843 24.3615 25.6998 24.3814 25.7199 24.3952C25.74 24.4091 25.7637 24.4162 25.7878 24.4157C26.6716 24.4148 27.5591 24.4152 28.4502 24.4171C28.5901 24.4171 28.7231 24.4735 28.83 24.5665C29.3935 25.0569 30.1983 24.6215 30.1503 23.8802C30.1219 23.4302 29.8866 23.1672 29.4442 23.0911C29.011 23.0164 28.8245 23.4166 28.4187 23.4222C27.8255 23.4298 27.167 23.4302 26.4431 23.4236C26.3901 23.4227 26.3531 23.3969 26.332 23.3461L25.0433 20.2389C24.9949 20.1214 24.9528 20.1238 24.9172 20.2459L23.3679 25.4839Z" fill="#335FE9"/>
<path d="M23.368 25.4838L24.9173 20.2458C24.9529 20.1237 24.995 20.1214 25.0434 20.2388L26.3321 23.3461C26.3532 23.3968 26.3902 23.4226 26.4432 23.4236C27.1671 23.4301 27.8256 23.4297 28.4188 23.4222C28.8246 23.4165 29.0111 23.0163 29.4443 23.091C29.8867 23.1671 30.122 23.4301 30.1504 23.8801C30.1984 24.6214 29.3936 25.0568 28.8301 24.5664C28.7232 24.4734 28.5902 24.417 28.4503 24.417C27.5592 24.4152 26.6717 24.4147 25.7878 24.4156C25.7638 24.4161 25.7401 24.409 25.72 24.3951C25.6999 24.3813 25.6844 24.3614 25.6754 24.3381C25.5164 23.9295 25.3638 23.556 25.2175 23.2178C25.202 23.1821 25.1773 23.1544 25.1435 23.1347C25.1376 23.1312 25.131 23.1291 25.1242 23.1286C25.1174 23.1281 25.1106 23.1292 25.1043 23.1318C25.098 23.1343 25.0923 23.1384 25.0877 23.1435C25.0831 23.1486 25.0797 23.1548 25.0777 23.1615L23.2241 29.4295C23.1738 29.5996 23.1304 29.5982 23.0938 29.4253L21.546 22.0905C21.492 21.8331 21.4262 21.8298 21.3485 22.0806L20.6452 24.3381C20.6297 24.3907 20.595 24.417 20.541 24.417L17.0395 24.4156C16.9819 24.4156 16.9531 24.3865 16.9531 24.3283V23.5039C16.9531 23.493 16.9552 23.4823 16.9593 23.4723C16.9634 23.4623 16.9694 23.4532 16.9769 23.4456C16.9844 23.438 16.9934 23.432 17.0032 23.428C17.013 23.4239 17.0235 23.422 17.034 23.4222L19.8021 23.4292C19.8296 23.4291 19.8564 23.4201 19.8788 23.4035C19.9011 23.3868 19.918 23.3633 19.9268 23.3362L21.6296 18.0743C21.6607 17.9756 21.6872 17.977 21.7091 18.0785L23.2707 25.4796C23.2981 25.6102 23.3306 25.6116 23.368 25.4838Z" fill="white"/>
<path d="M41.8683 23V8.45455H44.5032V15.1378H44.6808L50.3555 8.45455H53.5728L47.9478 14.9815L53.6225 23H50.4549L46.1154 16.7642L44.5032 18.6676V23H41.8683ZM67.6193 15.7273C67.6193 17.2945 67.3258 18.6368 66.7386 19.7543C66.1563 20.867 65.3608 21.7192 64.3523 22.3111C63.3485 22.9029 62.2098 23.1989 60.9361 23.1989C59.6624 23.1989 58.5213 22.9029 57.5128 22.3111C56.509 21.7145 55.7135 20.8598 55.1264 19.7472C54.544 18.6297 54.2528 17.2898 54.2528 15.7273C54.2528 14.16 54.544 12.8201 55.1264 11.7074C55.7135 10.59 56.509 9.73532 57.5128 9.14347C58.5213 8.55161 59.6624 8.25568 60.9361 8.25568C62.2098 8.25568 63.3485 8.55161 64.3523 9.14347C65.3608 9.73532 66.1563 10.59 66.7386 11.7074C67.3258 12.8201 67.6193 14.16 67.6193 15.7273ZM64.9702 15.7273C64.9702 14.6241 64.7973 13.6937 64.4517 12.9361C64.1108 12.1738 63.6373 11.5985 63.0312 11.2102C62.4252 10.8172 61.7268 10.6207 60.9361 10.6207C60.1454 10.6207 59.447 10.8172 58.8409 11.2102C58.2348 11.5985 57.759 12.1738 57.4134 12.9361C57.0724 13.6937 56.902 14.6241 56.902 15.7273C56.902 16.8305 57.0724 17.7633 57.4134 18.5256C57.759 19.2831 58.2348 19.8584 58.8409 20.2514C59.447 20.6397 60.1454 20.8338 60.9361 20.8338C61.7268 20.8338 62.4252 20.6397 63.0312 20.2514C63.6373 19.8584 64.1108 19.2831 64.4517 18.5256C64.7973 17.7633 64.9702 16.8305 64.9702 15.7273ZM75.0394 23H70.1104V8.45455H75.1388C76.583 8.45455 77.8235 8.74574 78.8604 9.32812C79.9021 9.90578 80.7023 10.7367 81.261 11.821C81.8197 12.9053 82.0991 14.2027 82.0991 15.7131C82.0991 17.2282 81.8174 18.5303 81.2539 19.6193C80.6952 20.7083 79.8879 21.544 78.832 22.1264C77.7809 22.7088 76.5167 23 75.0394 23ZM72.7454 20.7202H74.9116C75.9248 20.7202 76.77 20.5355 77.4471 20.1662C78.1242 19.7921 78.6332 19.2358 78.9741 18.4972C79.315 17.7538 79.4854 16.8258 79.4854 15.7131C79.4854 14.6004 79.315 13.6771 78.9741 12.9432C78.6332 12.2045 78.1289 11.6529 77.4613 11.2884C76.7984 10.919 75.9746 10.7344 74.9897 10.7344H72.7454V20.7202ZM84.6026 23V8.45455H94.0629V10.6634H87.2376V14.6122H93.5728V16.821H87.2376V20.7912H94.1197V23H84.6026ZM101.712 23V8.45455H107.28C108.331 8.45455 109.205 8.62026 109.901 8.9517C110.602 9.27841 111.125 9.72585 111.471 10.294C111.821 10.8622 111.996 11.5062 111.996 12.2259C111.996 12.8177 111.882 13.3243 111.655 13.7457C111.428 14.1624 111.123 14.5009 110.739 14.7614C110.355 15.0218 109.927 15.2088 109.453 15.3224V15.4645C109.97 15.4929 110.464 15.6515 110.938 15.9403C111.416 16.2244 111.807 16.6269 112.11 17.1477C112.413 17.6686 112.564 18.2983 112.564 19.0369C112.564 19.7898 112.382 20.4669 112.017 21.0682C111.653 21.6648 111.104 22.1359 110.37 22.4815C109.636 22.8272 108.712 23 107.6 23H101.712ZM104.347 20.7983H107.181C108.137 20.7983 108.826 20.616 109.248 20.2514C109.674 19.8821 109.887 19.4086 109.887 18.831C109.887 18.4001 109.78 18.0118 109.567 17.6662C109.354 17.3158 109.051 17.0412 108.658 16.8423C108.265 16.6387 107.796 16.5369 107.252 16.5369H104.347V20.7983ZM104.347 14.6406H106.953C107.408 14.6406 107.818 14.5578 108.182 14.392C108.547 14.2216 108.833 13.9825 109.042 13.6747C109.255 13.3622 109.361 12.9929 109.361 12.5668C109.361 12.0033 109.162 11.5393 108.765 11.1747C108.372 10.8101 107.787 10.6278 107.01 10.6278H104.347V14.6406ZM114.857 23V8.45455H117.491V20.7912H123.898V23H114.857ZM135.354 8.45455H137.989V17.9574C137.989 18.9991 137.742 19.9152 137.25 20.706C136.762 21.4967 136.076 22.1146 135.19 22.5597C134.305 23 133.27 23.2202 132.087 23.2202C130.898 23.2202 129.861 23 128.976 22.5597C128.09 22.1146 127.404 21.4967 126.916 20.706C126.429 19.9152 126.185 18.9991 126.185 17.9574V8.45455H128.82V17.7372C128.82 18.3433 128.952 18.883 129.217 19.3565C129.487 19.83 129.866 20.2017 130.354 20.4716C130.841 20.7367 131.419 20.8693 132.087 20.8693C132.754 20.8693 133.332 20.7367 133.82 20.4716C134.312 20.2017 134.691 19.83 134.956 19.3565C135.221 18.883 135.354 18.3433 135.354 17.7372V8.45455ZM140.853 23V8.45455H150.313V10.6634H143.488V14.6122H149.823V16.821H143.488V20.7912H150.37V23H140.853Z" fill="#333333"/>
</svg>
